<svg xmlns="http://www.w3.org/2000/svg" viewBox="0 0 100 100" preserveAspectRatio="none">
  <!-- Decorative strip: dark top, paper white below torn edge (matches reference torn-paper look). -->
  <rect width="100" height="100" fill="#fff"/>
  <path
    fill="#000"
    d="M0,0 L100,0 L100,56.5 L98.5,55.7 L97,57.1 L95.2,55.4 L93.5,57.2 L91,55.6 L89.2,57 L87.5,55.5 L85.5,57.1 L83.2,55.7 L81,56.9 L78.8,55.4 L76.5,57.2 L74.2,55.6 L72,57 L69.5,55.5 L67.2,57.1 L65,55.7 L62.8,56.9 L60.5,55.4 L58.2,57.2 L56,55.6 L53.8,57 L51.5,55.5 L49.2,57.1 L47,55.7 L44.8,56.9 L42.5,55.4 L40.2,57.2 L38,55.6 L35.8,57 L33.5,55.5 L31.2,57.1 L29,55.7 L26.8,56.9 L24.5,55.4 L22.2,57.2 L20,55.6 L17.8,57 L15.5,55.5 L13.2,57.1 L11,55.7 L8.8,56.9 L6.5,55.4 L4.2,57.2 L2,55.6 L0,56.8 L0,0 Z"
  />
</svg>
