<svg xmlns="http://www.w3.org/2000/svg" viewBox="0 0 100 100" preserveAspectRatio="none">
  <!-- Luminance mask: white = show poster art, black = transparent (white paper shows through). -->
  <rect width="100" height="100" fill="#000"/>
  <path
    fill="#fff"
    d="M0,0 L100,0 L100,66.2 L98.5,65.4 L97,66.8 L95.2,65.1 L93.5,66.9 L91,65.3 L89.2,66.7 L87.5,65.2 L85.5,66.8 L83.2,65.4 L81,66.6 L78.8,65.1 L76.5,66.9 L74.2,65.3 L72,66.7 L69.5,65.2 L67.2,66.8 L65,65.4 L62.8,66.6 L60.5,65.1 L58.2,66.9 L56,65.3 L53.8,66.7 L51.5,65.2 L49.2,66.8 L47,65.4 L44.8,66.6 L42.5,65.1 L40.2,66.9 L38,65.3 L35.8,66.7 L33.5,65.2 L31.2,66.8 L29,65.4 L26.8,66.6 L24.5,65.1 L22.2,66.9 L20,65.3 L17.8,66.7 L15.5,65.2 L13.2,66.8 L11,65.4 L8.8,66.6 L6.5,65.1 L4.2,66.9 L2,65.3 L0,66.5 L0,0 Z"
  />
</svg>
